<?xml version="1.0" encoding="iso-8859-1"?>
<!-- Generator: Adobe Illustrator 19.0.0, SVG Export Plug-In . SVG Version: 6.00 Build 0)  -->
<svg version="1.1" id="Layer_1" xmlns="http://www.w3.org/2000/svg" xmlns:xlink="http://www.w3.org/1999/xlink" x="0px" y="0px"
	 viewBox="0 0 460 460" style="enable-background:new 0 0 460 460;" xml:space="preserve">
<g>
	<g>
		<g>
			<circle cx="183.288" cy="38.528" r="37.523"/>
			<path d="M444.5,427.995h-63.86c-51.672,0-101.528-18.789-140.315-52.777c-2.206-1.933-5.053-2.976-7.986-2.976h-33.082
				c5.524-2.909,9.294-8.698,9.294-15.375c0-1.937-0.33-3.792-0.915-5.532h6.386c3.342,0,6.529-1.412,8.774-3.888L240.427,328
				c4.381-4.832,4.357-12.404-0.394-16.871c-4.84-4.55-12.447-4.229-16.888,0.671l-14.37,15.85h-13.306
				c8.151-3.861,12.433-13.217,9.663-22.071l-25.221-80.615c-1.453-4.646-4.69-8.525-9.001-10.787l-29.078-15.258l19.819-45.257
				l11.168,20.26c3.882,7.043,12.364,10.147,19.87,7.26c19.542-7.516,40.322-15.914,54.458-21.868
				c5.937-2.5,11.038-7.062,11.566-13.847c0.666-8.567-5.738-16.052-14.306-16.718l-47.443,18.145l-18.95-30.599l1.178-2.691
				c4.164-9.508-0.169-20.591-9.676-24.754l-39.103-17.124c-3.283-1.438-6.75-1.841-10.06-1.389l19.617,10.486L76.829,64.006
				c-0.012-0.003-0.025-0.005-0.038-0.009c-5.063-1.335-10.45,0.005-14.273,3.388L15.949,108.56
				c-6.883,6.085-7.06,16.853-0.185,23.143c5.731,5.248,14.77,5.498,20.797,0.169l40.32-35.649l57.181,15.229l-41.468-0.211
				l-28.666,65.458c-4.949,11.3-3.052,24.468,4.894,33.904c8.14,9.666,18.984,23.073,29.321,37.511l-43.06,50.708
				c-5.747,6.768-6.19,16.753-0.657,23.698c1.837,2.306,4.059,3.985,6.457,5.13H45.579l-14.106-15.559
				c-4.38-4.831-11.916-5.548-16.826-1.258c-5.002,4.371-5.428,11.975-0.985,16.876l17.895,19.738
				c2.245,2.476,5.431,3.888,8.773,3.888h6.387c-0.585,1.74-0.915,3.595-0.915,5.532c0,6.677,3.771,12.466,9.294,15.375h-42.88
				C5.47,372.242,0,377.712,0,384.459v62.322c0,6.745,5.469,12.214,12.215,12.214H444.5c8.56,0,15.5-6.94,15.5-15.5
				S453.06,427.995,444.5,427.995z M82.805,322.962l52.473-61.793c5.064-5.963,5.764-14.425,1.893-21.104
				c-2.92-4.117,2.179,2.798-34.904-47.106c5.111,4.214,38.102,31.417,43.834,36.143c10.665,8.862,11.827,22.007,6.495,31.659
				l17.455,55.793c1.59,5.083,5.19,8.974,9.647,11.096H76.692C78.97,326.567,81.067,325.009,82.805,322.962z M71.257,372.242
				c5.524-2.909,9.294-8.698,9.294-15.375c0-1.937-0.33-3.792-0.915-5.532h95.08c-0.585,1.74-0.915,3.595-0.915,5.532
				c0,6.677,3.771,12.466,9.294,15.375H71.257z"/>
		</g>
	</g>
</g>
<g>
</g>
<g>
</g>
<g>
</g>
<g>
</g>
<g>
</g>
<g>
</g>
<g>
</g>
<g>
</g>
<g>
</g>
<g>
</g>
<g>
</g>
<g>
</g>
<g>
</g>
<g>
</g>
<g>
</g>
</svg>
