<?xml version="1.0" encoding="iso-8859-1"?>
<!-- Generator: Adobe Illustrator 19.0.0, SVG Export Plug-In . SVG Version: 6.00 Build 0)  -->
<svg version="1.1" id="Layer_1" xmlns="http://www.w3.org/2000/svg" xmlns:xlink="http://www.w3.org/1999/xlink" x="0px" y="0px"
	 viewBox="0 0 506.96 506.96" style="enable-background:new 0 0 506.96 506.96;" xml:space="preserve">
<path style="fill:#61C2AB;" d="M15.816,204.329c-3.2,0-6,1.6-7.6,4c-3.2,4.4-2,11.6,2.8,14.4c21.2,14.4,47.6,22.4,74.4,22.4h337.2
	c27.2,0,54-8.4,74.8-22.4c2-1.6,3.6-4,4-6.8s0-5.6-1.6-8c-2.8-4.4-9.2-4.8-13.6-2c-18,12-40.4,19.2-63.6,19.2h-337.2
	c-23.2,0-45.6-6.8-63.2-18.8C20.216,205.529,18.216,204.329,15.816,204.329z"/>
<path style="fill:#33A5D2;" d="M117.416,280.729c0-12-9.6-21.6-21.6-21.6s-21.6,9.6-21.6,21.6s9.6,21.6,21.6,21.6
	C107.816,302.729,117.416,292.729,117.416,280.729z"/>
<path style="fill:#ACD9EA;" d="M95.416,270.729c-5.2,0-9.6,4.4-9.6,10s4.4,10,10,10c2.8,0,5.6-1.2,7.6-3.2c1.6-2,2.4-4,2.4-6.4
	C104.616,271.529,95.816,270.729,95.416,270.729z"/>
<path style="fill:#33A5D2;" d="M434.216,280.329c0-12-9.6-21.6-21.6-21.6s-21.6,9.6-21.6,21.6s9.6,21.6,21.6,21.6
	C424.616,302.329,434.216,292.329,434.216,280.329z"/>
<path style="fill:#ACD9EA;" d="M412.616,270.329c-5.6,0-10,4.4-10,10s4.4,10,10,10c3.2,0,6.4-1.6,8.4-4c0.8-1.2,2-3.2,1.6-5.6
	C420.216,270.729,413.816,270.329,412.616,270.329z"/>
<path d="M422.216,251.529h-337.2c-27.6,0-55.6-8.4-78-23.6c-7.2-4.8-9.2-15.2-4.4-22.8c4.8-6.8,14.4-8.4,22-3.2
	c16.8,11.6,38.4,17.6,60,17.6h337.2c21.6,0,42.8-6.4,60.4-18.4c3.6-2.4,7.6-3.2,11.6-2.8c4.4,0.4,8,2.8,10.4,6.4
	c4.8,7.2,3.2,18-4,23.2C478.216,243.129,450.616,251.529,422.216,251.529z M15.416,206.729c-2,0-4.4,0.8-5.6,2.8
	c-2.4,3.6-1.6,9.2,2,11.6c21.2,14.4,47.2,22,73.2,22h337.2c26.4,0,52.8-8,73.6-22c3.6-2.4,4.4-8.4,2-12c-1.6-2-3.6-2.8-4.8-2.8
	c-2-0.4-4.4,0.4-6,1.6c-18.4,12.8-41.6,19.6-64.8,19.6h-337.2c-23.2,0-46.4-6.8-64.4-19.2
	C19.416,207.529,17.416,206.729,15.416,206.729z"/>
<path d="M95.816,308.729c-15.2,0-27.6-12.4-27.6-27.6s12.4-27.6,27.6-27.6c15.2,0,27.6,12.4,27.6,27.6
	S111.016,308.729,95.816,308.729z M95.816,261.129c-10.8,0-19.6,8.8-19.6,19.6s8.8,19.6,19.6,19.6s19.6-8.8,19.6-19.6
	S106.616,261.129,95.816,261.129z"/>
<path d="M95.416,296.329c-8.8,0-16-7.2-16-16s7.2-16,16-16c2.4,0,4,1.6,4,4s-1.6,4-4,4c-4.4,0-8,3.6-8,8s3.6,8,8,8s8-3.6,8-8
	c0-2.4,1.6-4,4-4s4,1.6,4,4C111.416,289.129,104.216,296.329,95.416,296.329z"/>
<path d="M412.616,308.329c-15.2,0-27.6-12.4-27.6-27.6s12.4-27.6,27.6-27.6s27.6,12.4,27.6,27.6S427.816,308.329,412.616,308.329z
	 M412.616,260.729c-10.8,0-19.6,8.8-19.6,19.6s8.8,19.6,19.6,19.6s19.6-8.8,19.6-19.6S423.416,260.729,412.616,260.729z"/>
<path d="M412.616,295.929c-8.8,0-16-7.2-16-16s7.2-16,16-16c2.4,0,4,1.6,4,4s-1.6,4-4,4c-4.4,0-8,3.6-8,8s3.6,8,8,8s8-3.6,8-8
	c0-2.4,1.6-4,4-4s4,1.6,4,4C428.216,288.729,421.016,295.929,412.616,295.929z"/>
<path d="M92.616,261.129c-2.4,0-4-1.6-4-4v-8c0-2.4,1.6-4,4-4s4,1.6,4,4v8C96.616,259.529,94.616,261.129,92.616,261.129z"/>
<path d="M409.416,261.129c-2.4,0-4-1.6-4-4v-8c0-2.4,1.6-4,4-4s4,1.6,4,4v8C413.416,259.529,411.816,261.129,409.416,261.129z"/>
<g>
</g>
<g>
</g>
<g>
</g>
<g>
</g>
<g>
</g>
<g>
</g>
<g>
</g>
<g>
</g>
<g>
</g>
<g>
</g>
<g>
</g>
<g>
</g>
<g>
</g>
<g>
</g>
<g>
</g>
</svg>
